<svg version="1.1" xmlns="http://www.w3.org/2000/svg" style="display: block;" viewBox="0 0 2048 2200" width="1024" height="1024" preserveAspectRatio="xMidYMid meet">
<defs>
  <filter id="nas-glow" x="-20%" y="-20%" width="140%" height="140%">
    <feGaussianBlur in="SourceGraphic" stdDeviation="14"/>
  </filter>
</defs>
<path fill="rgb(17,26,38)" d="M 594.12 133.79 L 851.89 130.79 L 1336.32 99.85 L 1636.15 65.74 L 1735.74 52.41 C 1754.24 49.79 1773.68 46.71 1792.34 44.73 C 1802.72 43.61 1816.56 47.37 1823.16 53.80 C 1836.27 66.46 1836.64 82.46 1834.05 102.07 C 1823.30 188.12 1814.37 271.25 1806.74 351.88 L 1792.26 849.42 L 1807.72 1095.79 L 1815.69 1177.87 C 1818.90 1208.63 1827.98 1247.96 1795.32 1262.91 C 1767.07 1276.03 1738.81 1288.74 1711.08 1301.75 L 1629.58 1340.80 C 1576.37 1367.06 1579.86 1370.29 1517.76 1364.80 L 1454.10 1359.67 L 692.91 1340.40 L 451.06 1351.02 L 368.85 1356.17 C 353.59 1357.19 337.92 1358.46 322.65 1358.92 C 301.98 1359.56 285.96 1338.82 287.54 1317.10 C 289.37 1290.85 292.75 1264.13 295.79 1238.20 L 307.05 1126.57 L 324.55 801.85 L 314.08 447.42 L 304.23 332.09 C 302.18 311.40 299.78 290.42 298.10 269.44 C 296.78 253.40 306.41 236.63 320.05 230.81 C 334.28 224.69 349.77 220.02 364.48 215.02 C 385.23 207.75 405.82 200.29 426.28 192.64 L 515.95 158.61 C 541.19 148.66 566.82 135.87 594.12 133.79 z"/>
<path fill="rgb(72,84,95)" d="M 333.59 967.44 L 332.81 504.28 L 321.72 355.87 C 319.13 327.79 316.13 299.35 313.95 270.70 C 313.08 259.63 322.42 245.32 333.23 244.67 C 361.33 242.93 391.15 244.98 419.37 245.59 L 636.04 247.91 L 1231.61 226.33 L 1472.47 205.76 C 1493.81 203.74 1515.29 201.08 1537.00 198.71 C 1545.23 197.80 1554.52 198.05 1561.22 201.85 C 1569.95 206.78 1572.47 213.45 1574.24 223.42 C 1574.93 230.58 1570.45 278.49 1569.67 288.52 L 1560.06 434.16 L 1557.46 955.96 C 1460.39 954.92 1364.89 952.41 1274.60 951.19 L 845.46 952.18 L 542.43 959.70 C 481.26 961.90 412.09 965.77 349.08 966.78 L 333.59 967.44 z"/>



<path fill="rgb(17,26,38)" id="mouth-bg" d="M 566.04 602.30 C 591.77 632.35 710.76 675.80 962.05 671.25 C 1217.60 665.44 1346.93 615.32 1373.88 588.22 C 1372.84 786.08 1280.51 921.60 961.62 921.95 C 649.47 927.63 567.46 798.31 566.04 602.30 Z"/>
<path fill="rgb(254,254,254)" d="M 867.68 694.65 C 896.62 695.68 925.59 696.19 954.59 696.18 C 941.29 733.42 935.13 753.51 932.76 794.08 C 902.00 771.99 884.22 746.75 871.90 710.52 L 867.68 694.65 z"/>
<path fill="rgb(193,200,203)" d="M 867.68 694.65 C 896.62 695.68 925.59 696.19 954.59 696.18 C 941.29 733.42 935.13 753.51 932.76 794.08 C 932.32 791.45 931.84 790.34 931.18 787.92 C 924.58 763.46 923.70 738.11 923.63 712.96 C 906.56 712.91 889.03 711.39 871.90 710.52 L 867.68 694.65 z"/>
<path fill="rgb(254,254,254)" d="M 967.50 696.08 C 996.59 695.14 1025.76 693.49 1054.99 691.13 L 1049.94 708.38 C 1040.09 735.52 1029.16 757.33 1008.17 777.22 C 1003.40 781.74 996.27 789.86 989.98 791.34 C 988.81 789.11 989.04 789.99 989.08 787.45 C 988.37 783.70 987.88 778.11 987.49 774.17 C 984.71 746.39 976.93 721.91 967.50 696.08 z"/>
<path fill="rgb(193,200,203)" d="M 967.50 696.08 C 996.59 695.14 1025.76 693.49 1054.99 691.13 L 1049.94 708.38 C 1044.88 707.22 1006.66 711.47 998.25 711.75 C 998.61 728.61 997.87 774.23 989.08 787.45 C 988.37 783.70 987.88 778.11 987.49 774.17 C 984.71 746.39 976.93 721.91 967.50 696.08 z"/>
<path fill="rgb(254,254,254)" d="M 690.10 668.32 C 716.59 674.92 743.23 680.36 769.98 684.63 C 757.86 718.48 753.62 729.81 750.94 765.84 C 750.77 766.41 750.96 765.98 749.88 767.43 C 745.93 765.49 740.63 760.23 737.26 757.06 C 714.14 735.35 703.54 714.00 693.34 684.35 C 692.19 679.00 691.00 673.74 690.10 668.32 z"/>
<path fill="rgb(193,200,203)" d="M 690.10 668.32 C 716.59 674.92 743.23 680.36 769.98 684.63 C 757.86 718.48 753.62 729.81 750.94 765.84 C 741.26 748.68 740.41 714.76 740.43 694.81 C 724.81 691.14 709.12 687.65 693.34 684.35 C 692.19 679.00 691.00 673.74 690.10 668.32 z"/>
<path fill="rgb(254,254,254)" d="M 1153.79 677.47 C 1180.45 670.36 1207.27 665.64 1236.12 657.60 L 1232.49 673.34 C 1220.54 708.97 1206.02 736.90 1175.53 760.23 L 1174.34 761.11 C 1172.42 759.94 1172.31 749.55 1172.02 746.27 C 1169.88 720.78 1162.79 700.71 1153.79 677.47 z"/>
<path fill="rgb(193,200,203)" d="M 1153.79 677.47 C 1180.45 670.36 1207.27 665.64 1236.12 657.60 L 1232.49 673.34 C 1217.21 678.18 1199.37 682.80 1183.92 686.69 C 1185.18 723.50 1179.22 728.60 1175.53 760.23 L 1174.34 761.11 C 1172.42 759.94 1172.31 749.55 1172.02 746.27 C 1169.88 720.78 1162.79 700.71 1153.79 677.47 z"/>
<path fill="rgb(254,254,254)" d="M 1119.52 786.19 C 1123.10 787.63 1128.09 792.17 1130.94 795.04 C 1149.50 813.80 1162.14 837.41 1168.08 863.55 C 1152.04 869.04 1135.87 874.01 1119.61 878.45 C 1108.55 881.13 1099.31 883.27 1088.10 885.20 C 1104.49 850.09 1113.62 825.04 1119.52 786.19 z"/>
<path fill="rgb(193,200,203)" d="M 1119.52 786.19 C 1128.85 812.46 1125.11 851.29 1119.61 878.45 C 1108.55 881.13 1099.31 883.27 1088.10 885.20 C 1104.49 850.09 1113.62 825.04 1119.52 786.19 z"/>
<path fill="rgb(254,254,254)" d="M 749.00 865.85 C 752.56 852.54 757.83 839.75 764.66 827.85 C 769.48 819.51 787.60 793.55 796.42 791.11 C 802.13 828.20 809.91 852.96 825.84 886.67 C 815.25 884.39 804.04 882.17 793.56 879.67 C 778.44 875.96 763.57 871.34 749.00 865.85 z"/>
<path fill="rgb(193,200,203)" d="M 796.42 791.11 C 802.13 828.20 809.91 852.96 825.84 886.67 C 815.25 884.39 804.04 882.17 793.56 879.67 C 793.61 876.01 791.58 858.42 791.21 853.64 C 789.19 827.96 791.43 815.13 796.42 791.11 z"/>
<path fill="rgb(254,254,254)" d="M 779.37 685.77 C 803.59 689.03 828.91 690.22 851.64 693.38 C 851.09 694.99 846.43 708.80 846.41 708.82 C 840.42 715.36 833.71 775.39 833.44 775.74 L 832.90 774.88 C 807.98 758.46 790.94 728.44 782.34 699.65 L 779.37 685.77 z"/>
<path fill="rgb(193,200,203)" d="M 779.37 685.77 C 803.59 689.03 828.91 690.22 851.64 693.38 C 851.09 694.99 846.43 708.80 846.41 708.82 C 840.42 715.36 833.71 775.39 833.44 775.74 L 832.90 774.88 C 832.46 771.78 829.92 761.52 829.14 757.01 C 825.84 738.31 825.95 725.52 826.63 706.90 C 811.96 704.62 796.71 704.17 782.34 699.65 L 779.37 685.77 z"/>
<path fill="rgb(254,254,254)" d="M 1070.76 689.26 C 1096.08 685.91 1117.93 683.48 1143.67 678.91 C 1142.62 684.18 1141.48 689.43 1140.27 694.67 C 1130.34 728.67 1115.64 749.50 1088.73 771.68 C 1086.97 770.59 1087.08 760.03 1086.87 756.62 C 1085.37 732.73 1078.31 711.46 1070.76 689.26 z"/>
<path fill="rgb(193,200,203)" d="M 1070.76 689.26 C 1096.08 685.91 1117.93 683.48 1143.67 678.91 C 1142.62 684.18 1141.48 689.43 1140.27 694.67 C 1136.32 693.82 1103.16 700.82 1096.12 701.94 C 1096.52 718.29 1096.74 731.72 1094.05 748.20 C 1093.11 753.95 1088.81 767.57 1088.73 771.68 C 1086.97 770.59 1087.08 760.03 1086.87 756.62 C 1085.37 732.73 1078.31 711.46 1070.76 689.26 z"/>
<path fill="rgb(254,254,254)" d="M 1202.98 765.57 C 1222.21 773.65 1241.78 803.30 1249.28 822.36 C 1235.41 830.83 1222.93 838.54 1208.34 845.54 C 1201.48 849.97 1187.20 855.73 1179.36 859.00 C 1193.16 825.28 1198.43 801.21 1202.98 765.57 z"/>
<path fill="rgb(193,200,203)" d="M 1179.36 859.00 C 1193.16 825.28 1198.43 801.21 1202.98 765.57 L 1203.44 767.55 C 1204.38 771.49 1205.86 774.52 1206.70 778.49 C 1211.36 800.29 1212.49 823.46 1208.34 845.54 C 1201.48 849.97 1187.20 855.73 1179.36 859.00 z"/>
<path fill="rgb(254,254,254)" d="M 1039.97 822.23 L 1041.26 819.17 C 1043.35 819.30 1044.18 819.89 1045.75 821.97 C 1061.07 842.27 1067.89 863.46 1071.72 888.29 C 1060.46 890.07 1049.20 891.71 1037.93 893.19 C 1026.93 894.65 1012.73 895.45 1001.57 896.28 C 1015.76 875.96 1035.02 846.86 1039.97 822.23 z"/>
<path fill="rgb(193,200,203)" d="M 1039.97 822.23 C 1048.72 839.41 1034.77 875.75 1031.50 892.43 L 1037.93 893.19 C 1026.93 894.65 1012.73 895.45 1001.57 896.28 C 1015.76 875.96 1035.02 846.86 1039.97 822.23 z"/>
<path fill="rgb(254,254,254)" d="M 713.23 774.66 L 715.41 773.08 L 716.61 773.80 C 719.84 808.05 723.96 828.13 735.83 860.48 C 731.63 858.67 711.66 850.32 709.07 848.17 C 695.28 841.86 684.29 834.88 671.91 826.31 C 682.07 805.37 694.28 788.18 713.23 774.66 z"/>
<path fill="rgb(193,200,203)" d="M 713.23 774.66 L 715.41 773.08 L 716.61 773.80 C 719.84 808.05 723.96 828.13 735.83 860.48 C 731.63 858.67 711.66 850.32 709.07 848.17 C 707.63 833.15 707.13 824.54 708.84 809.16 C 709.98 798.75 712.79 784.62 713.23 774.66 z"/>
<path fill="rgb(254,254,254)" d="M 842.26 889.44 C 843.37 881.28 845.12 873.23 847.49 865.36 C 850.75 854.84 863.23 826.54 872.30 821.44 L 872.95 822.91 C 885.73 858.63 889.79 865.99 911.09 897.09 C 906.16 896.55 882.89 895.11 879.71 893.95 C 867.00 892.99 854.85 891.26 842.26 889.44 z"/>
<path fill="rgb(193,200,203)" d="M 872.95 822.91 C 885.73 858.63 889.79 865.99 911.09 897.09 C 906.16 896.55 882.89 895.11 879.71 893.95 L 880.75 893.43 C 880.44 893.99 869.27 840.15 872.95 822.91 z"/>
<path fill="rgb(193,200,203)" d="M 607.69 644.17 C 630.27 652.02 651.68 658.35 674.35 664.95 C 664.49 693.30 666.01 697.09 661.62 723.83 C 659.47 722.70 659.36 723.01 657.95 721.32 C 635.54 705.56 621.92 686.09 612.42 660.07 C 610.38 654.21 609.19 650.20 607.69 644.17 z"/>
<path fill="rgb(254,254,254)" d="M 612.42 660.07 C 619.23 660.79 640.26 668.80 649.77 671.11 C 650.63 687.08 653.23 702.88 657.52 718.20 C 657.98 719.92 657.83 719.23 657.95 721.32 C 635.54 705.56 621.92 686.09 612.42 660.07 z"/>
<path fill="rgb(193,200,203)" d="M 1252.96 653.10 C 1276.13 645.46 1298.72 637.80 1321.76 628.49 C 1320.33 635.04 1318.88 639.70 1316.87 646.09 C 1307.49 671.75 1291.47 695.84 1268.44 710.96 L 1266.76 712.21 C 1265.00 710.21 1263.87 698.91 1263.51 695.29 C 1262.05 680.45 1257.41 667.20 1252.96 653.10 z"/>
<path fill="rgb(254,254,254)" d="M 1277.77 659.11 C 1285.75 656.46 1311.10 644.87 1316.87 646.09 C 1307.49 671.75 1291.47 695.84 1268.44 710.96 C 1268.31 707.68 1273.90 688.80 1274.87 683.46 C 1276.56 674.36 1277.04 668.36 1277.77 659.11 z"/>
<path fill="rgb(193,200,203)" d="M 1263.42 812.07 C 1273.06 783.54 1273.41 770.50 1274.69 741.90 L 1275.97 741.18 C 1288.73 747.68 1298.99 759.42 1307.24 771.02 C 1301.35 778.29 1294.08 785.71 1287.30 792.20 C 1283.44 796.71 1268.74 807.91 1263.42 812.07 z"/>
<path fill="rgb(254,254,254)" d="M 1275.97 741.18 C 1288.73 747.68 1298.99 759.42 1307.24 771.02 C 1301.35 778.29 1294.08 785.71 1287.30 792.20 C 1285.70 789.11 1284.84 771.67 1284.16 766.71 C 1283.06 758.73 1276.86 746.79 1275.97 741.18 z"/>
<path fill="rgb(193,200,203)" d="M 648.54 753.04 L 650.19 752.13 C 652.45 755.30 651.16 766.79 651.54 771.58 C 652.77 787.44 656.18 802.08 659.80 817.36 C 655.14 814.51 642.00 803.90 638.80 799.62 C 632.52 793.74 626.37 787.32 620.29 781.17 C 627.97 770.27 636.78 759.36 648.54 753.04 z"/>
<path fill="rgb(254,254,254)" d="M 648.54 753.04 L 649.56 754.30 C 647.05 760.50 643.55 768.49 641.96 774.89 C 640.77 779.69 640.21 795.94 638.80 799.62 C 632.52 793.74 626.37 787.32 620.29 781.17 C 627.97 770.27 636.78 759.36 648.54 753.04 z"/>
<path fill="rgb(17,26,38)" d="M 1360.01 320.93 C 1389.32 316.46 1412.70 327.92 1436.21 341.12 C 1407.11 341.49 1387.55 342.70 1359.25 352.87 C 1371.39 403.10 1365.59 449.59 1340.11 496.75 C 1328.04 519.19 1312.88 535.02 1295.33 552.66 C 1334.82 532.00 1353.03 513.85 1380.00 477.58 C 1372.21 494.42 1365.15 508.74 1353.27 523.16 C 1304.73 582.30 1236.12 603.99 1167.55 602.62 C 1159.87 602.52 1149.15 601.18 1141.78 599.53 C 1090.57 588.03 1058.90 564.59 1031.50 520.21 C 995.39 518.45 985.19 484.09 995.04 451.76 C 998.70 464.15 1001.98 473.03 1011.10 482.04 C 1016.18 487.51 1029.68 492.36 1036.92 490.08 C 1057.31 483.63 1079.39 469.95 1098.62 459.40 L 1250.93 374.85 C 1278.37 359.42 1306.90 342.40 1335.59 327.96 C 1344.26 323.59 1350.87 322.22 1360.01 320.93 z"/>
<path fill="rgb(215,31,29)" d="M 1318.86 370.18 C 1322.36 384.37 1324.29 399.02 1324.63 413.84 C 1322.85 459.24 1309.22 498.73 1276.96 531.91 C 1248.29 561.79 1209.97 578.84 1170.90 579.37 C 1133.72 579.78 1098.69 565.00 1073.32 538.24 C 1066.90 531.84 1060.92 522.89 1055.70 515.28 C 1073.57 505.15 1093.39 494.84 1111.83 485.27 C 1119.78 480.10 1132.15 473.21 1140.78 468.83 C 1145.10 476.76 1147.53 479.72 1154.65 485.53 C 1185.03 504.93 1218.79 484.49 1225.99 447.43 C 1225.82 436.82 1225.13 433.98 1222.20 424.41 L 1251.32 408.03 C 1273.69 395.74 1296.20 383.13 1318.86 370.18 z"/>
<path fill="rgb(254,254,254)" d="M 1251.32 408.03 C 1254.00 417.80 1254.91 424.72 1256.32 434.73 L 1255.82 436.09 C 1254.69 461.60 1248.06 480.20 1229.53 499.01 C 1214.95 513.99 1195.54 522.51 1175.76 522.68 C 1158.10 522.93 1139.23 515.98 1126.50 504.04 L 1125.93 503.98 C 1119.83 496.80 1117.18 493.33 1111.83 485.27 C 1119.78 480.10 1132.15 473.21 1140.78 468.83 C 1145.10 476.76 1147.53 479.72 1154.65 485.53 C 1185.03 504.93 1218.79 484.49 1225.99 447.43 C 1225.82 436.82 1225.13 433.98 1222.20 424.41 L 1251.32 408.03 z"/>
<path fill="rgb(193,200,203)" d="M 1251.32 408.03 C 1254.00 417.80 1254.91 424.72 1256.32 434.73 L 1255.82 436.09 C 1246.26 438.02 1233.43 446.89 1225.99 447.43 C 1225.82 436.82 1225.13 433.98 1222.20 424.41 L 1251.32 408.03 z"/>
<path fill="rgb(193,200,203)" d="M 1140.78 468.83 C 1145.10 476.76 1147.53 479.72 1154.65 485.53 C 1148.93 489.18 1129.45 500.03 1126.50 504.04 L 1125.93 503.98 C 1119.83 496.80 1117.18 493.33 1111.83 485.27 C 1119.78 480.10 1132.15 473.21 1140.78 468.83 z"/>
<path fill="rgb(172,30,30)" d="M 1318.86 370.18 C 1322.36 384.37 1324.29 399.02 1324.63 413.84 L 1322.72 409.74 C 1308.65 411.75 1270.03 427.90 1256.32 434.73 C 1254.91 424.72 1254.00 417.80 1251.32 408.03 C 1273.69 395.74 1296.20 383.13 1318.86 370.18 z"/>
<path fill="rgb(172,30,30)" d="M 1055.70 515.28 C 1073.57 505.15 1093.39 494.84 1111.83 485.27 C 1117.18 493.33 1119.83 496.80 1125.93 503.98 C 1118.75 507.55 1077.89 533.37 1073.32 538.24 C 1066.90 531.84 1060.92 522.89 1055.70 515.28 z"/>
<path fill="rgb(17,26,38)" d="M 560.27 348.75 C 590.95 347.47 635.51 375.44 664.25 389.67 L 819.21 466.59 C 835.55 474.63 851.98 483.24 868.67 490.22 C 899.56 503.08 915.73 483.12 924.04 453.21 C 924.99 456.84 925.74 460.52 926.31 464.24 C 931.12 495.91 920.65 519.87 888.46 523.91 C 859.76 573.89 821.55 601.41 766.44 610.79 C 736.14 617.15 685.83 610.71 657.08 599.52 C 607.36 580.18 575.39 550.65 551.09 501.96 C 556.61 507.96 562.64 516.18 568.58 522.75 C 589.08 545.47 606.62 555.86 632.33 569.19 C 573.58 518.48 555.78 455.67 568.52 378.96 C 542.97 370.96 522.18 371.75 496.59 373.31 C 519.21 358.88 533.21 350.85 560.27 348.75 z"/>
<path fill="rgb(215,31,29)" d="M 607.63 393.39 C 629.50 404.24 651.12 415.20 672.50 426.29 C 682.06 430.77 691.53 435.38 700.92 440.11 C 698.52 449.00 697.26 454.20 697.58 463.76 C 706.89 500.03 736.52 516.54 767.83 495.96 C 773.91 489.67 776.24 486.67 780.50 479.07 C 790.14 483.80 799.71 488.63 809.21 493.55 C 826.30 501.45 848.53 513.60 864.79 520.26 C 858.95 528.53 854.06 535.51 847.51 543.20 C 845.47 545.73 843.63 547.67 841.37 549.98 C 815.67 576.21 780.86 590.34 744.85 589.20 C 663.55 587.18 603.08 516.91 602.73 431.95 C 602.38 419.64 604.86 405.21 607.63 393.39 z"/>
<path fill="rgb(254,254,254)" d="M 672.50 426.29 C 682.06 430.77 691.53 435.38 700.92 440.11 C 698.52 449.00 697.26 454.20 697.58 463.76 C 706.89 500.03 736.52 516.54 767.83 495.96 C 773.91 489.67 776.24 486.67 780.50 479.07 C 790.14 483.80 799.71 488.63 809.21 493.55 C 804.29 501.48 801.35 505.26 795.49 512.42 L 794.86 512.75 C 794.66 512.97 794.47 513.20 794.27 513.42 C 751.79 554.25 684.34 531.30 670.61 471.87 C 668.99 464.93 669.02 459.33 668.84 452.70 L 668.70 451.73 C 668.59 442.40 670.31 435.18 672.50 426.29 z"/>
<path fill="rgb(193,200,203)" d="M 672.50 426.29 C 682.06 430.77 691.53 435.38 700.92 440.11 C 698.52 449.00 697.26 454.20 697.58 463.76 C 688.28 459.88 678.46 455.50 668.84 452.70 L 668.70 451.73 C 668.59 442.40 670.31 435.18 672.50 426.29 z"/>
<path fill="rgb(193,200,203)" d="M 780.50 479.07 C 790.14 483.80 799.71 488.63 809.21 493.55 C 804.29 501.48 801.35 505.26 795.49 512.42 L 794.86 512.75 C 786.58 507.29 776.50 501.48 767.83 495.96 C 773.91 489.67 776.24 486.67 780.50 479.07 z"/>
<path fill="rgb(172,30,30)" d="M 607.63 393.39 C 629.50 404.24 651.12 415.20 672.50 426.29 C 670.31 435.18 668.59 442.40 668.70 451.73 C 664.70 451.06 650.94 445.76 646.11 444.02 C 630.67 438.44 618.93 434.84 602.73 431.95 C 602.38 419.64 604.86 405.21 607.63 393.39 z"/>
<path fill="rgb(172,30,30)" d="M 809.21 493.55 C 826.30 501.45 848.53 513.60 864.79 520.26 C 858.95 528.53 854.06 535.51 847.51 543.20 C 842.63 539.25 801.68 515.41 795.49 512.42 C 801.35 505.26 804.29 501.48 809.21 493.55 z"/>
<path fill="rgb(17,26,38)" d="M 1382.25 555.65 C 1405.51 554.03 1422.38 568.27 1425.60 590.38 C 1427.27 601.60 1425.64 610.87 1423.82 622.12 L 1418.98 606.27 C 1407.65 576.53 1387.37 564.42 1355.32 563.14 C 1366.43 557.69 1370.28 557.11 1382.25 555.65 z"/>
<path fill="rgb(17,26,38)" d="M 548.28 576.37 C 559.21 576.32 564.68 577.73 574.57 582.07 C 565.56 582.95 556.74 585.23 548.43 588.83 C 531.28 596.31 522.93 608.12 516.54 624.79 C 514.93 629.50 512.97 638.51 511.51 643.83 C 511.06 641.43 510.65 639.02 510.26 636.61 C 505.41 606.22 514.21 579.96 548.28 576.37 z"/>
<path fill="rgb(17,26,38)" d="M 895.84 384.28 C 907.71 386.29 925.50 398.62 931.96 409.46 C 939.77 422.55 941.03 428.22 938.84 442.44 L 937.12 443.34 C 936.43 442.60 927.07 425.21 924.55 421.23 C 915.12 406.35 907.30 397.35 895.84 384.28 z"/>
<path fill="rgb(17,26,38)" d="M 1018.20 381.41 L 1019.18 381.49 L 1019.69 382.67 C 999.92 406.16 994.84 416.55 981.30 443.77 C 969.85 413.65 996.52 393.59 1018.20 381.41 z"/>
<path fill="rgb(72,84,95)" d="M 347.99 982.20 L 1109.33 965.28 L 1393.70 968.33 C 1444.78 969.35 1504.83 969.35 1557.99 972.41 L 1574.31 1213.88 L 1579.95 1278.18 C 1581.42 1293.61 1583.77 1310.72 1583.09 1325.98 C 1582.56 1338.70 1568.44 1350.86 1556.12 1350.06 C 1535.55 1348.76 1515.10 1346.95 1494.84 1345.34 L 1381.45 1337.11 L 1048.69 1322.31 L 574.10 1328.27 L 417.81 1336.43 C 404.88 1337.21 328.43 1343.55 321.99 1340.65 C 294.55 1333.24 304.29 1298.67 307.28 1273.93 C 309.79 1252.72 312.10 1231.72 314.20 1210.90 C 321.66 1133.34 328.75 1056.34 332.51 982.85 L 347.99 982.20 z"/>
<path fill="rgb(17,26,38)" d="M 913.77 999.99 C 938.40 998.40 972.99 999.21 998.25 999.09 L 1164.84 999.55 L 1269.93 1000.80 C 1285.18 1001.04 1316.57 1000.77 1330.45 1003.25 C 1332.86 1010.74 1332.72 1030.77 1333.03 1039.59 L 1335.55 1105.45 C 1338.03 1163.44 1341.33 1223.15 1344.29 1284.22 C 1344.48 1288.07 1344.60 1292.35 1342.62 1295.27 C 1262.83 1293.19 1177.21 1287.61 1100.03 1285.24 L 980.91 1283.17 C 957.48 1283.00 931.54 1283.39 908.36 1282.18 C 909.38 1240.52 908.79 1199.93 910.69 1159.77 C 911.48 1142.88 911.47 1125.10 911.57 1108.44 C 911.50 1082.54 911.77 1056.89 912.35 1031.49 C 912.50 1024.25 912.48 1006.35 913.77 999.99 z"/>
<path fill="rgb(72,84,95)" d="M 922.76 1010.01 L 1231.38 1010.94 C 1233.77 1046.40 1234.77 1096.88 1234.42 1133.13 L 1008.84 1129.35 C 998.06 1129.31 928.64 1130.81 921.95 1128.44 C 920.39 1124.92 921.08 1124.43 921.29 1119.88 C 922.93 1085.51 922.40 1043.97 922.76 1010.01 z"/>
<path fill="rgb(44,54,63)" d="M 1231.38 1010.94 C 1233.77 1046.40 1234.77 1096.88 1234.42 1133.13 L 1008.84 1129.35 C 998.06 1129.31 928.64 1130.81 921.95 1128.44 C 920.39 1124.92 921.08 1124.43 921.29 1119.88 L 928.36 1119.61 C 960.39 1120.39 992.32 1119.61 1024.52 1119.82 L 1233.74 1123.29 C 1233.16 1087.86 1232.14 1052.88 1230.68 1018.33 L 1231.38 1010.94 z"/>
<path fill="rgb(17,26,38)" d="M 1010.27 1050.99 C 1056.03 1049.18 1138.71 1051.83 1189.30 1052.60 C 1191.37 1052.63 1192.22 1055.26 1192.92 1057.05 C 1192.78 1060.83 1192.89 1060.58 1190.73 1063.52 C 1135.66 1066.25 1075.31 1060.32 1020.79 1062.04 C 1016.17 1062.20 1011.25 1062.40 1008.56 1058.23 C 1008.54 1053.16 1008.01 1055.49 1010.27 1050.99 z"/>
<path fill="rgb(17,26,38)" d="M 1016.53 1026.74 C 1032.89 1026.46 1186.93 1026.64 1190.75 1029.88 C 1192.81 1033.69 1192.52 1031.77 1191.92 1035.82 C 1188.53 1039.25 1190.50 1038.12 1185.64 1039.09 C 1129.70 1039.24 1073.93 1037.48 1019.09 1038.14 C 1015.71 1038.18 1011.47 1036.89 1008.84 1034.58 C 1007.70 1031.14 1007.72 1032.84 1008.77 1029.32 C 1011.36 1026.97 1013.13 1027.16 1016.53 1026.74 z"/>
<path fill="rgb(17,26,38)" d="M 1011.37 1098.86 L 1137.23 1100.03 C 1147.01 1100.19 1184.67 1100.30 1191.32 1102.10 C 1194.06 1104.83 1193.11 1103.23 1194.13 1107.19 C 1193.06 1111.54 1194.14 1109.86 1190.79 1112.46 C 1174.78 1113.26 1016.54 1111.37 1011.50 1109.68 C 1009.47 1109.00 1009.28 1108.24 1008.25 1106.38 C 1008.50 1102.50 1009.23 1101.93 1011.37 1098.86 z"/>
<path fill="rgb(17,26,38)" d="M 1010.67 1075.25 C 1068.29 1073.06 1129.10 1076.82 1188.24 1076.92 C 1190.70 1076.93 1191.78 1078.76 1193.14 1080.52 C 1193.76 1084.54 1193.49 1084.48 1191.82 1087.93 L 1063.78 1086.25 C 1047.59 1086.17 1029.22 1086.60 1013.01 1085.89 C 1010.59 1085.77 1009.81 1084.34 1008.58 1082.67 C 1008.60 1077.80 1008.27 1079.66 1010.67 1075.25 z"/>
<path fill="rgb(17,26,38)" d="M 955.65 1044.87 C 967.70 1041.21 980.12 1048.79 983.33 1061.80 C 986.55 1074.85 979.27 1088.39 967.10 1091.91 C 955.03 1095.40 942.77 1087.71 939.66 1074.73 C 936.55 1061.82 943.70 1048.50 955.65 1044.87 z"/>
<path fill="rgb(215,31,29)" d="M 957.50 1054.49 C 964.58 1051.90 972.20 1055.97 974.52 1063.58 C 976.84 1071.22 972.95 1079.53 965.84 1082.10 C 958.75 1084.66 951.16 1080.55 948.87 1072.93 C 946.59 1065.32 950.45 1057.08 957.50 1054.49 z"/>
<path fill="rgb(72,84,95)" d="M 920.85 1144.70 L 1235.17 1148.92 C 1236.92 1163.54 1237.24 1189.76 1237.65 1205.45 C 1238.28 1228.51 1239.87 1255.19 1239.73 1278.43 C 1186.18 1276.20 986.77 1271.76 919.91 1270.71 C 919.38 1270.10 918.86 1269.50 918.33 1268.89 C 918.34 1265.98 918.18 1264.75 918.90 1261.94 L 919.11 1260.97 L 920.85 1144.70 z"/>
<path fill="rgb(44,54,63)" d="M 1235.17 1148.92 C 1236.92 1163.54 1237.24 1189.76 1237.65 1205.45 C 1238.28 1228.51 1239.87 1255.19 1239.73 1278.43 C 1186.18 1276.20 986.77 1271.76 919.91 1270.71 C 919.38 1270.10 918.86 1269.50 918.33 1268.89 C 918.34 1265.98 918.18 1264.75 918.90 1261.94 C 1022.18 1260.11 1131.84 1264.24 1238.96 1268.58 C 1236.90 1231.07 1236.94 1193.05 1234.58 1157.01 L 1235.17 1148.92 z"/>
<path fill="rgb(17,26,38)" d="M 1013.03 1188.66 C 1068.77 1186.68 1126.70 1192.01 1183.72 1191.13 C 1187.23 1191.08 1191.06 1192.31 1194.31 1193.91 C 1198.32 1199.12 1197.27 1201.42 1192.25 1204.14 L 1073.73 1201.22 C 1061.26 1201.01 1019.01 1202.21 1009.79 1198.27 C 1007.21 1195.31 1007.76 1196.99 1007.77 1193.19 C 1010.37 1189.06 1008.72 1190.57 1013.03 1188.66 z"/>
<path fill="rgb(17,26,38)" d="M 1011.57 1239.71 C 1033.70 1239.19 1188.46 1242.07 1194.76 1245.85 C 1197.30 1247.39 1197.42 1248.05 1198.14 1250.87 C 1197.09 1254.28 1196.75 1254.07 1194.09 1256.29 C 1173.20 1255.60 1019.15 1254.35 1011.15 1250.03 C 1008.91 1248.83 1008.83 1247.99 1007.95 1245.54 C 1009.09 1241.07 1008.10 1243.08 1011.57 1239.71 z"/>
<path fill="rgb(17,26,38)" d="M 1010.25 1214.31 C 1064.26 1211.88 1122.34 1218.00 1177.79 1217.24 C 1184.00 1217.18 1193.55 1216.24 1197.19 1222.25 C 1196.95 1227.65 1197.64 1225.20 1194.67 1229.73 C 1139.40 1231.66 1080.17 1225.07 1025.54 1226.43 C 1020.42 1226.58 1011.57 1227.20 1008.26 1222.79 C 1008.00 1218.25 1008.37 1218.20 1010.25 1214.31 z"/>
<path fill="rgb(17,26,38)" d="M 1009.27 1163.67 C 1019.17 1162.65 1036.24 1163.38 1046.69 1163.51 L 1116.45 1164.67 L 1166.95 1165.67 C 1174.17 1165.85 1190.91 1164.28 1195.27 1170.38 C 1195.80 1174.53 1195.55 1174.46 1193.98 1178.02 C 1187.27 1178.36 1180.07 1178.03 1173.33 1177.85 C 1120.43 1176.61 1068.06 1175.60 1016.13 1175.14 C 1011.97 1175.12 1011.16 1175.00 1008.38 1171.73 C 1007.59 1167.54 1007.89 1167.53 1009.27 1163.67 z"/>
<path fill="rgb(44,54,63)" d="M 955.10 1181.66 C 967.32 1178.56 979.45 1186.97 982.34 1200.59 C 985.25 1214.33 977.78 1228.24 965.54 1231.78 C 957.45 1234.13 948.92 1231.40 943.22 1224.64 C 937.53 1217.90 935.56 1208.22 938.04 1199.32 C 940.51 1190.45 947.03 1183.71 955.10 1181.66 z"/>
<path fill="rgb(103,193,83)" d="M 956.94 1191.71 C 964.26 1189.63 971.66 1194.53 973.52 1202.71 C 975.39 1210.91 970.99 1219.33 963.66 1221.55 C 956.26 1223.78 948.71 1218.82 946.86 1210.52 C 945.02 1202.25 949.55 1193.81 956.94 1191.71 z"/>
<path fill="rgb(44,54,63)" d="M 1241.71 1034.44 C 1260.05 1035.13 1279.10 1035.29 1297.69 1035.72 C 1298.03 1058.75 1298.65 1085.71 1300.18 1109.03 L 1299.64 1109.81 C 1295.17 1111.17 1250.63 1109.13 1243.82 1108.92 C 1242.51 1084.82 1242.28 1058.28 1241.71 1034.44 z"/>
<path fill="rgb(44,54,63)" d="M 1245.89 1174.06 L 1302.29 1176.13 C 1304.45 1201.95 1305.39 1228.72 1306.67 1255.20 C 1287.33 1254.63 1268.09 1253.77 1248.95 1252.62 L 1245.89 1174.06 z"/>
<path fill="rgb(72,84,95)" d="M 1245.18 1149.13 L 1326.89 1151.98 L 1333.43 1282.70 L 1266.22 1279.40 L 1249.84 1278.68 L 1249.18 1262.72 C 1260.92 1262.91 1307.49 1267.02 1314.66 1263.73 C 1317.33 1254.61 1313.49 1173.04 1309.75 1167.75 C 1301.97 1163.96 1256.83 1164.15 1245.87 1163.92 L 1245.18 1149.13 z"/>
<path fill="rgb(72,84,95)" d="M 1241.12 1010.89 C 1267.38 1011.08 1294.49 1011.97 1321.26 1012.60 C 1322.94 1053.14 1324.57 1094.27 1326.14 1136.02 L 1258.76 1133.80 L 1244.88 1133.33 L 1244.24 1118.67 C 1265.74 1118.32 1288.46 1120.47 1309.94 1119.68 C 1310.37 1108.73 1307.99 1036.62 1305.45 1028.85 C 1299.73 1024.15 1251.63 1025.12 1241.49 1025.01 L 1241.12 1010.89 z"/>
<path fill="rgb(17,26,38)" d="M 459.68 1011.90 C 475.80 1009.92 508.49 1009.60 525.65 1008.96 L 650.75 1004.89 L 793.70 1001.38 C 816.85 1000.94 849.33 999.46 871.66 1000.69 C 874.04 1010.29 872.65 1029.21 872.39 1039.77 L 871.42 1090.31 C 870.24 1149.84 868.49 1211.10 866.97 1273.97 C 866.89 1277.23 867.02 1280.05 865.34 1282.63 C 842.40 1283.79 817.10 1283.47 793.94 1283.78 L 675.46 1286.57 C 598.03 1289.35 513.97 1294.97 434.95 1296.86 L 451.20 1110.10 C 453.34 1079.67 455.23 1049.31 457.03 1019.48 C 457.29 1015.06 457.32 1014.77 459.68 1011.90 z"/>
<path fill="rgb(72,84,95)" d="M 467.06 1021.69 L 709.90 1013.59 C 728.84 1013.12 757.45 1012.32 777.11 1012.30 C 777.66 1012.73 778.21 1013.16 778.76 1013.60 L 778.95 1019.54 L 775.65 1121.32 C 775.64 1122.54 775.97 1130.42 773.97 1130.50 C 682.73 1134.82 589.96 1135.95 495.68 1140.64 C 489.38 1140.98 463.01 1142.82 459.24 1141.38 C 457.89 1137.79 458.84 1136.97 459.76 1132.12 C 463.07 1095.42 464.97 1057.56 467.06 1021.69 z"/>
<path fill="rgb(44,54,63)" d="M 459.76 1132.12 L 466.99 1132.35 C 488.50 1130.90 511.43 1130.58 532.87 1129.67 L 676.47 1124.08 C 710.21 1123.12 742.08 1122.98 775.65 1121.32 C 775.64 1122.54 775.97 1130.42 773.97 1130.50 C 682.73 1134.82 589.96 1135.95 495.68 1140.64 C 489.38 1140.98 463.01 1142.82 459.24 1141.38 C 457.89 1137.79 458.84 1136.97 459.76 1132.12 z"/>
<path fill="rgb(17,26,38)" d="M 557.08 1059.41 L 686.92 1055.11 C 701.73 1054.67 720.22 1053.86 735.26 1054.20 C 737.68 1054.25 738.51 1056.27 739.47 1058.04 C 738.77 1062.97 739.60 1060.73 736.71 1064.93 C 727.45 1066.09 708.89 1066.01 698.99 1066.27 L 628.42 1068.40 L 581.81 1070.09 C 573.94 1070.39 559.16 1073.12 554.88 1066.85 C 554.71 1063.07 555.21 1062.84 557.08 1059.41 z"/>
<path fill="rgb(17,26,38)" d="M 559.78 1035.34 C 599.28 1032.77 640.83 1033.16 679.93 1031.58 C 689.21 1031.22 730.96 1030.03 737.28 1031.18 C 740.23 1033.82 739.23 1032.17 740.13 1036.46 C 738.85 1040.54 740.00 1039.06 736.81 1041.27 L 617.19 1044.64 C 600.24 1045.26 576.95 1046.75 559.53 1046.22 C 557.05 1046.16 556.54 1043.96 555.93 1042.12 C 557.34 1037.03 556.11 1039.21 559.78 1035.34 z"/>
<path fill="rgb(17,26,38)" d="M 555.13 1107.74 L 672.03 1103.56 C 680.60 1103.31 731.97 1100.61 736.20 1103.95 C 738.01 1107.36 737.73 1105.59 737.37 1109.39 C 735.14 1112.91 736.58 1111.67 732.86 1113.17 L 616.03 1116.66 C 596.92 1117.38 576.38 1118.49 557.13 1118.52 C 554.09 1118.53 553.54 1117.16 552.27 1115.24 C 552.40 1111.57 553.13 1110.92 555.13 1107.74 z"/>
<path fill="rgb(17,26,38)" d="M 556.05 1084.05 C 615.57 1080.15 676.41 1079.95 734.77 1078.48 C 736.90 1078.43 737.35 1079.90 738.31 1081.45 C 738.29 1085.42 738.50 1085.38 736.42 1089.02 L 610.50 1092.78 C 594.20 1093.40 573.93 1094.62 557.27 1094.39 C 554.75 1094.35 554.28 1092.60 553.57 1090.89 C 553.80 1087.02 553.73 1087.29 556.05 1084.05 z"/>
<path fill="rgb(17,26,38)" d="M 502.79 1055.22 C 515.60 1052.46 527.14 1060.67 528.69 1073.66 C 530.22 1086.71 521.13 1099.76 508.30 1102.88 C 499.84 1104.94 491.46 1102.20 486.37 1095.73 C 481.26 1089.27 480.23 1080.09 483.64 1071.70 C 487.04 1063.34 494.35 1057.05 502.79 1055.22 z"/>
<path fill="rgb(215,31,29)" d="M 501.67 1065.30 C 509.19 1062.39 516.94 1066.13 518.98 1073.64 C 521.02 1081.17 516.56 1089.65 509.02 1092.56 C 501.48 1095.47 493.73 1091.72 491.72 1084.17 C 489.69 1076.65 494.15 1068.20 501.67 1065.30 z"/>
<path fill="rgb(72,84,95)" d="M 457.88 1157.77 L 774.51 1146.60 C 773.87 1184.33 770.99 1223.25 770.04 1262.13 C 770.02 1263.50 770.21 1271.59 767.87 1271.69 C 675.81 1276.40 582.33 1277.58 487.43 1282.82 C 480.64 1283.23 450.81 1285.46 446.59 1283.58 C 445.43 1279.82 446.17 1279.71 447.18 1274.80 C 449.33 1263.80 450.70 1243.39 451.75 1231.73 L 457.88 1157.77 z"/>
<path fill="rgb(44,54,63)" d="M 447.18 1274.80 L 455.21 1274.48 C 472.87 1274.53 493.59 1272.95 511.45 1272.04 L 620.59 1266.73 L 697.44 1264.38 C 721.53 1264.07 746.03 1264.48 770.04 1262.13 C 770.02 1263.50 770.21 1271.59 767.87 1271.69 C 675.81 1276.40 582.33 1277.58 487.43 1282.82 C 480.64 1283.23 450.81 1285.46 446.59 1283.58 C 445.43 1279.82 446.17 1279.71 447.18 1274.80 z"/>
<path fill="rgb(17,26,38)" d="M 549.73 1197.19 C 597.50 1192.83 681.35 1192.96 730.78 1191.37 C 733.00 1191.31 733.59 1193.81 734.16 1195.66 C 732.83 1201.05 734.02 1198.78 730.59 1202.80 C 707.60 1203.03 556.39 1211.02 548.73 1207.45 C 546.15 1206.25 546.04 1205.58 545.25 1202.86 C 546.39 1199.65 547.17 1199.41 549.73 1197.19 z"/>
<path fill="rgb(17,26,38)" d="M 546.11 1248.19 C 603.61 1243.25 663.33 1245.09 719.99 1241.88 C 724.80 1241.64 728.98 1241.31 731.50 1245.81 C 731.27 1250.30 731.13 1250.12 728.71 1253.66 C 709.89 1254.96 548.10 1261.82 543.24 1258.85 C 541.95 1258.06 542.05 1256.84 541.69 1255.35 C 542.82 1251.07 543.09 1251.20 546.11 1248.19 z"/>
<path fill="rgb(17,26,38)" d="M 546.26 1222.98 C 607.40 1218.85 669.41 1218.44 729.39 1216.59 C 732.21 1216.50 732.76 1221.13 732.48 1223.69 C 729.86 1227.83 731.52 1226.27 727.14 1228.27 L 606.34 1232.19 C 587.63 1232.98 567.42 1234.38 548.61 1234.35 C 545.45 1234.34 544.89 1233.07 543.65 1231.02 C 543.62 1227.20 544.36 1226.42 546.26 1222.98 z"/>
<path fill="rgb(17,26,38)" d="M 549.91 1172.28 L 682.41 1167.09 C 697.33 1166.63 716.27 1165.71 731.20 1166.28 C 733.67 1166.38 734.19 1168.18 734.92 1169.99 C 734.67 1174.18 734.49 1174.05 732.37 1177.49 C 674.41 1180.74 614.79 1179.80 555.59 1183.64 C 551.73 1183.91 550.28 1183.42 547.96 1180.58 C 547.49 1176.93 548.34 1175.81 549.91 1172.28 z"/>
<path fill="rgb(44,54,63)" d="M 492.83 1193.12 C 501.45 1191.06 509.84 1194.00 514.79 1200.85 C 519.74 1207.71 520.50 1217.43 516.75 1226.29 C 512.98 1235.20 505.28 1241.87 496.58 1243.73 C 483.35 1246.56 471.91 1237.62 470.94 1223.70 C 469.94 1209.86 479.70 1196.25 492.83 1193.12 z"/>
<path fill="rgb(103,193,83)" d="M 492.06 1203.48 C 499.83 1200.61 507.47 1204.80 509.12 1212.83 C 510.76 1220.89 505.75 1229.75 497.94 1232.58 C 490.16 1235.40 482.56 1231.17 480.96 1223.13 C 479.35 1215.11 484.31 1206.33 492.06 1203.48 z"/>
<path fill="rgb(44,54,63)" d="M 782.75 1170.35 L 836.47 1169.71 L 834.74 1246.24 C 816.62 1246.66 798.50 1246.91 780.37 1247.02 C 780.30 1222.66 781.91 1194.41 782.75 1170.35 z"/>
<path fill="rgb(44,54,63)" d="M 787.53 1034.99 L 840.23 1033.85 L 838.53 1106.10 C 820.94 1106.65 803.07 1106.84 785.42 1107.24 C 785.20 1085.25 786.69 1056.73 787.53 1034.99 z"/>
<path fill="rgb(72,84,95)" d="M 784.19 1146.28 C 809.59 1145.66 834.95 1145.34 860.28 1145.31 L 856.83 1271.25 L 792.06 1271.96 L 779.12 1272.18 C 779.19 1267.38 779.47 1262.16 779.64 1257.33 C 799.20 1256.31 824.43 1257.33 843.07 1254.97 C 843.72 1240.33 847.19 1170.19 843.73 1161.65 C 837.42 1158.04 793.84 1160.48 783.35 1160.72 L 784.19 1146.28 z"/>
<path fill="rgb(72,84,95)" d="M 788.54 1011.90 C 813.46 1011.16 838.34 1010.78 863.19 1010.78 L 860.66 1129.83 L 798.19 1130.74 L 793.66 1130.81 C 790.39 1130.89 788.56 1131.53 786.12 1129.38 C 784.48 1125.95 785.28 1120.78 785.50 1116.61 C 803.49 1115.98 830.32 1116.73 847.27 1114.67 C 847.93 1084.76 849.23 1053.71 849.12 1024.65 C 833.87 1023.68 804.63 1025.10 787.98 1025.39 C 788.04 1021.04 788.34 1016.28 788.54 1011.90 z"/>
<path fill="rgb(17,26,38)" d="M 352.45 1211.91 C 361.94 1210.87 415.66 1206.06 419.46 1210.57 C 422.68 1223.30 416.47 1264.07 414.89 1280.02 C 414.52 1283.73 412.55 1284.86 410.18 1286.84 C 400.55 1287.96 346.46 1293.05 342.13 1288.79 C 339.22 1277.15 345.99 1236.14 347.34 1221.81 C 347.81 1216.76 348.93 1215.02 352.45 1211.91 z"/>
<path fill="rgb(72,84,95)" d="M 355.95 1221.44 C 370.60 1220.51 399.32 1217.95 412.51 1218.80 C 409.88 1237.31 408.39 1258.58 406.65 1277.59 C 390.67 1278.36 368.83 1280.19 353.27 1280.16 L 351.01 1279.91 C 349.03 1275.52 355.02 1229.98 355.95 1221.44 z"/>
<path fill="rgb(17,26,38)" d="M 1450.08 1101.94 L 1455.97 1104.30 C 1458.83 1107.54 1458.72 1107.99 1458.96 1112.50 C 1462.44 1172.73 1467.21 1234.57 1471.36 1298.04 C 1471.58 1301.09 1467.43 1303.51 1465.49 1305.12 C 1463.57 1303.74 1461.71 1302.11 1459.86 1300.58 C 1451.96 1283.31 1451.27 1139.11 1446.00 1114.09 C 1444.80 1108.32 1446.46 1105.61 1450.08 1101.94 z"/>
<path fill="rgb(17,26,38)" d="M 1470.96 1004.47 C 1475.17 1005.81 1476.39 1006.06 1478.78 1009.50 C 1483.55 1030.42 1482.28 1073.45 1484.52 1097.39 C 1485.90 1111.55 1492.10 1190.83 1488.64 1199.17 C 1483.22 1198.55 1482.20 1198.46 1478.93 1194.01 C 1476.87 1183.83 1476.27 1168.34 1475.58 1157.86 L 1472.05 1100.78 L 1468.92 1044.08 C 1468.38 1033.28 1465.42 1012.45 1470.96 1004.47 z"/>
<path fill="rgb(17,26,38)" d="M 1500.61 1105.73 C 1505.75 1105.67 1507.69 1104.92 1511.56 1108.98 C 1514.39 1123.59 1516.48 1171.84 1517.81 1190.07 L 1523.48 1262.85 C 1524.27 1272.37 1527.77 1301.21 1525.33 1308.29 C 1520.87 1307.50 1519.64 1307.66 1515.95 1304.41 C 1511.42 1296.27 1506.23 1204.49 1504.75 1188.46 C 1503.60 1175.74 1498.73 1115.29 1500.61 1105.73 z"/>
<path fill="rgb(17,26,38)" d="M 1371.56 1099.10 C 1375.71 1100.16 1376.90 1100.19 1379.45 1102.98 C 1382.23 1122.58 1383.30 1169.43 1384.64 1192.70 L 1388.47 1255.06 C 1389.21 1266.92 1390.05 1279.27 1390.33 1291.25 C 1390.43 1295.49 1389.42 1295.65 1387.13 1299.06 C 1382.50 1297.77 1378.70 1297.07 1378.31 1290.91 C 1374.41 1226.48 1370.24 1163.63 1368.49 1102.71 C 1368.49 1102.71 1371.28 1099.42 1371.56 1099.10 z"/>
<path fill="rgb(17,26,38)" d="M 1395.41 1002.76 C 1399.90 1005.00 1401.29 1005.63 1401.64 1011.00 C 1402.41 1022.78 1402.80 1034.66 1403.31 1046.52 L 1406.58 1115.03 C 1407.83 1137.67 1409.73 1165.72 1410.66 1189.37 C 1410.76 1192.10 1407.94 1193.75 1405.95 1195.46 C 1402.48 1193.68 1401.96 1193.71 1399.29 1190.64 C 1394.76 1172.98 1392.53 1035.15 1389.92 1008.13 C 1389.71 1005.92 1393.40 1004.09 1395.41 1002.76 z"/>
<path fill="rgb(44,54,63)" d="M 389.53 1105.90 C 403.13 1102.56 415.39 1110.83 416.95 1124.40 C 418.47 1138.05 408.65 1151.93 394.99 1155.38 C 381.25 1158.85 368.91 1150.49 367.45 1136.74 C 365.95 1123.06 375.85 1109.26 389.53 1105.90 z"/>
<path fill="rgb(103,193,83)" d="M 390.67 1115.94 C 398.59 1113.95 405.77 1118.68 406.79 1126.56 C 407.81 1134.46 402.26 1142.60 394.35 1144.82 C 389.13 1146.29 383.92 1144.84 380.72 1141.03 C 377.52 1137.23 376.82 1131.66 378.89 1126.46 C 380.95 1121.28 385.45 1117.26 390.67 1115.94 z"/>
<path fill="rgb(17,26,38)" d="M 398.91 1032.37 C 412.23 1031.43 422.66 1041.35 422.39 1054.71 C 422.08 1068.13 411.12 1080.10 397.73 1081.60 C 388.81 1082.60 380.63 1078.69 376.34 1071.38 C 372.03 1064.08 372.29 1054.54 376.99 1046.45 C 381.66 1038.39 390.05 1033.01 398.91 1032.37 z"/>
<path fill="rgb(215,31,29)" d="M 393.86 1043.48 C 398.79 1041.45 404.13 1042.15 407.84 1045.28 C 411.54 1048.42 413.05 1053.53 411.77 1058.66 C 410.49 1063.81 406.63 1068.18 401.65 1070.10 C 394.08 1073.03 386.28 1069.50 384.15 1062.20 C 382.02 1054.91 386.35 1046.57 393.86 1043.48 z"/>
<path fill="rgb(17,26,38)" d="M 1421.76 1100.84 C 1425.74 1101.48 1431.70 1102.04 1431.70 1107.37 C 1431.71 1121.86 1439.62 1188.25 1434.51 1196.68 C 1428.62 1195.68 1428.55 1195.77 1425.31 1191.75 C 1421.57 1178.07 1421.06 1123.50 1419.84 1107.00 C 1419.71 1105.07 1420.92 1102.49 1421.76 1100.84 z"/>
<path fill="rgb(17,26,38)" d="M 1444.26 1003.83 C 1448.42 1005.05 1449.37 1005.05 1452.62 1008.11 C 1454.05 1012.15 1454.25 1017.34 1454.41 1022.26 C 1455.07 1041.69 1457.09 1062.28 1456.46 1081.80 C 1456.40 1083.68 1454.03 1085.94 1452.86 1087.15 C 1449.96 1086.44 1449.35 1085.96 1446.60 1084.52 C 1441.95 1078.73 1441.43 1019.21 1441.56 1009.33 C 1441.58 1007.80 1443.40 1005.10 1444.26 1003.83 z"/>
<path fill="rgb(17,26,38)" d="M 1483.20 1216.46 C 1485.76 1216.90 1492.26 1218.06 1492.47 1221.57 C 1493.49 1237.74 1502.24 1296.00 1496.08 1306.86 C 1491.82 1305.30 1491.54 1305.47 1487.81 1302.31 C 1486.80 1300.32 1485.87 1297.97 1485.61 1294.85 C 1483.62 1270.17 1479.99 1242.98 1480.83 1219.40 C 1481.62 1218.42 1482.41 1217.44 1483.20 1216.46 z"/>
<path fill="rgb(17,26,38)" d="M 1429.03 1212.53 C 1434.00 1213.43 1434.71 1213.46 1437.89 1216.89 C 1441.48 1234.64 1441.76 1276.17 1443.73 1296.37 C 1443.95 1298.53 1442.80 1300.67 1441.79 1302.33 C 1438.66 1301.78 1431.91 1300.11 1431.69 1295.88 C 1430.90 1280.07 1423.07 1222.62 1429.03 1212.53 z"/>
<path fill="rgb(17,26,38)" d="M 1417.96 1003.36 C 1422.01 1003.88 1424.01 1004.54 1426.56 1007.77 C 1429.33 1024.48 1429.03 1061.69 1430.04 1080.04 C 1430.13 1081.67 1428.47 1084.12 1427.60 1085.41 C 1423.92 1084.91 1424.11 1085.05 1420.79 1083.25 C 1419.71 1081.93 1418.45 1080.34 1418.31 1078.42 C 1416.65 1055.29 1415.52 1031.53 1415.32 1008.81 C 1415.31 1007.11 1417.16 1004.52 1417.96 1003.36 z"/>
<path fill="rgb(17,26,38)" d="M 1496.61 1006.61 C 1501.91 1007.29 1501.36 1006.47 1505.31 1009.15 C 1508.52 1015.60 1511.32 1080.76 1509.21 1087.51 C 1506.72 1087.75 1499.82 1087.72 1499.33 1084.44 C 1497.09 1069.39 1491.69 1018.12 1496.61 1006.61 z"/>
<path fill="rgb(17,26,38)" d="M 1402.47 1211.25 C 1407.76 1212.38 1408.72 1212.36 1411.92 1216.85 C 1414.46 1230.45 1419.00 1291.35 1415.05 1300.41 C 1411.21 1299.84 1411.37 1299.96 1407.78 1298.12 C 1406.76 1296.94 1405.42 1295.10 1405.37 1293.57 C 1405.04 1280.79 1397.47 1218.57 1402.47 1211.25 z"/>
<path fill="rgb(17,26,38)" d="M 1367.84 1001.97 C 1370.17 1002.69 1371.05 1003.17 1373.32 1004.18 C 1375.50 1007.11 1375.73 1007.14 1375.93 1011.67 C 1376.94 1033.69 1378.39 1056.49 1378.36 1078.76 C 1378.37 1080.37 1376.63 1082.42 1375.78 1083.47 C 1372.53 1082.54 1372.00 1082.24 1368.90 1080.71 C 1366.88 1078.29 1366.60 1076.14 1366.45 1072.65 C 1365.57 1050.94 1363.96 1028.68 1364.63 1007.41 C 1364.70 1005.38 1366.66 1003.32 1367.84 1001.97 z"/>
<path fill="rgb(103,193,83)" d="M 885.55 1196.28 C 888.92 1194.71 892.74 1195.29 895.51 1197.79 C 898.28 1200.30 899.58 1204.35 898.89 1208.35 C 898.20 1212.37 895.63 1215.71 892.18 1217.08 C 887.05 1219.13 881.52 1216.24 879.73 1210.59 C 877.94 1204.95 880.53 1198.61 885.55 1196.28 z"/>
<path fill="rgb(103,193,83)" d="M 888.09 1059.19 C 892.90 1056.73 898.53 1058.87 900.71 1063.97 C 902.89 1069.10 900.78 1075.28 895.98 1077.79 C 891.16 1080.33 885.46 1078.19 883.28 1073.03 C 881.10 1067.87 883.26 1061.67 888.09 1059.19 z"/>
<path fill="rgb(44,54,63)" d="M 1790.85 63.56 C 1814.49 63.86 1817.99 82.48 1815.59 103.72 C 1812.00 136.50 1808.01 168.89 1804.30 200.85 L 1788.23 362.23 L 1774.63 844.62 L 1790.15 1094.03 L 1796.92 1169.05 C 1798.05 1180.79 1799.22 1193.12 1800.44 1204.51 C 1802.59 1224.16 1799.77 1240.50 1780.63 1248.54 C 1720.14 1274.43 1659.51 1308.41 1600.91 1332.57 C 1601.49 1319.16 1598.69 1296.09 1597.36 1282.02 L 1590.41 1204.25 L 1573.45 946.65 L 1574.52 475.19 L 1584.25 317.01 C 1586.75 284.56 1589.77 251.82 1591.70 218.60 C 1592.95 198.36 1575.05 192.76 1572.27 184.99 C 1581.33 181.21 1589.05 205.32 1594.51 207.53 C 1614.73 195.13 1637.73 183.07 1659.15 171.33 L 1769.02 110.70 C 1780.42 104.33 1803.67 92.73 1812.86 86.98 L 1813.72 84.72 C 1812.15 72.35 1800.67 68.72 1790.85 63.56 z"/>
<path fill="rgb(72,84,95)" d="M 376.51 229.14 C 408.00 215.39 452.87 201.12 486.02 188.57 L 542.54 166.44 C 584.06 149.76 587.88 149.82 632.68 150.29 L 695.97 150.28 L 924.52 145.07 L 1790.85 63.56 C 1800.67 68.72 1812.15 72.35 1813.72 84.72 L 1812.86 86.98 C 1803.67 92.73 1780.42 104.33 1769.02 110.70 L 1659.15 171.33 C 1637.73 183.07 1614.73 195.13 1594.51 207.53 C 1589.05 205.32 1581.33 181.21 1572.27 184.99 C 1563.87 182.02 1557.38 179.89 1547.72 180.84 C 1521.12 183.41 1494.63 186.24 1468.57 188.88 L 1322.45 202.47 L 908.60 227.34 L 566.07 231.48 L 450.40 229.92 C 426.70 229.46 400.18 228.34 376.51 229.14 z"/>
<g transform="translate(0,150)">
<path fill="rgb(255,140,0)" filter="url(#nas-glow)" d="M 293.795 1341.56 C 316.195 1340.76 351.187 1340.49 373.341 1341.52 C 378.24 1346.51 387.312 1360.29 391.537 1366.5 L 419.122 1406.96 L 519.938 1552.96 C 519.196 1512.57 518.896 1472.17 519.036 1431.77 C 518.991 1402.08 518.481 1370.7 519.157 1341.16 C 537.989 1342.31 577.701 1341.74 597.099 1341.12 L 596.943 1591.09 L 597.097 1645.6 C 597.169 1652.41 597.786 1676.14 596.468 1681.66 L 594.25 1682.15 C 569.481 1681.94 544.711 1681.92 519.942 1682.09 C 502.503 1659.66 480.991 1626.28 464.571 1602.29 L 369.855 1463.92 C 371.014 1536.74 371.47 1609.58 371.222 1682.41 C 346.824 1681.45 317.375 1682.04 292.714 1682.11 C 291.564 1577.99 293.077 1473.66 292.581 1369.53 C 292.551 1363.04 292.004 1347.05 293.795 1341.56 z"/>
<path fill="rgb(255,140,0)" filter="url(#nas-glow)" d="M 759.757 1341.16 C 767.875 1341.91 780.651 1341.14 789.302 1341.21 C 810.693 1341.38 832.87 1340.49 854.207 1341.46 C 860.076 1354.24 867.837 1376.26 873.009 1389.69 L 912.571 1493.81 C 935.886 1555.32 963.299 1621.01 984.787 1682.47 C 964.207 1681.65 919.452 1681.53 899.898 1682.74 C 892.032 1665.37 879.733 1628.1 872.767 1608.97 C 867.594 1608.93 862.421 1608.86 857.248 1608.76 L 738.242 1608.6 C 731.496 1623.47 717.742 1665.81 712.629 1682.16 L 628.091 1682.1 L 691.754 1516.54 C 706.361 1477.24 721.221 1438.04 736.332 1398.94 C 739.294 1391.17 755.844 1343.98 759.757 1341.16 z M 759.276 1547.1 L 805.75 1546.98 L 851.997 1546.97 C 847.321 1534.19 806.7 1414.15 805.423 1412.74 C 795.458 1441.18 785.727 1469.7 776.229 1498.3 C 772.277 1510.16 763.986 1536.94 759.276 1547.1 z"/>
<path fill="rgb(255,140,0)" filter="url(#nas-glow)" d="M 1133.62 1335.44 C 1174.83 1332.88 1222.01 1341.61 1259.78 1357.88 C 1257.26 1378.7 1252.2 1403.37 1248.54 1424.37 C 1219.18 1412.08 1186.4 1402.8 1154.49 1401.36 C 1139.4 1401.02 1107.57 1401.75 1096.79 1414.62 C 1075.21 1440.38 1097.45 1457.09 1119.37 1464.83 C 1163.1 1480.27 1217.78 1484.91 1252.36 1516.61 C 1288.03 1549.32 1283.8 1619.56 1249.67 1651.96 C 1216.49 1683.99 1171.33 1688.19 1127.58 1688.48 C 1076.34 1686.62 1050.53 1679.91 1002.94 1661.85 C 1006.67 1642 1009.52 1612.69 1012.32 1591.83 C 1056.49 1609.66 1092.04 1624.92 1141.65 1621.04 C 1164.63 1619.25 1197.12 1615.45 1194.28 1584.43 C 1191.99 1559.35 1159.2 1552.83 1139.49 1547.42 C 1086.17 1532.81 1012.72 1519.54 1007.25 1451.8 C 1000.61 1369.69 1062.12 1340.78 1133.62 1335.44 z"/>
<path fill="none" stroke="rgb(255,140,0)" stroke-width="38" stroke-linejoin="round" stroke-linecap="round" opacity="0.7" d="M 293.795 1341.56 C 316.195 1340.76 351.187 1340.49 373.341 1341.52 C 378.24 1346.51 387.312 1360.29 391.537 1366.5 L 419.122 1406.96 L 519.938 1552.96 C 519.196 1512.57 518.896 1472.17 519.036 1431.77 C 518.991 1402.08 518.481 1370.7 519.157 1341.16 C 537.989 1342.31 577.701 1341.74 597.099 1341.12 L 596.943 1591.09 L 597.097 1645.6 C 597.169 1652.41 597.786 1676.14 596.468 1681.66 L 594.25 1682.15 C 569.481 1681.94 544.711 1681.92 519.942 1682.09 C 502.503 1659.66 480.991 1626.28 464.571 1602.29 L 369.855 1463.92 C 371.014 1536.74 371.47 1609.58 371.222 1682.41 C 346.824 1681.45 317.375 1682.04 292.714 1682.11 C 291.564 1577.99 293.077 1473.66 292.581 1369.53 C 292.551 1363.04 292.004 1347.05 293.795 1341.56 z"/>
<path fill="none" stroke="rgb(255,140,0)" stroke-width="38" stroke-linejoin="round" stroke-linecap="round" opacity="0.7" d="M 759.757 1341.16 C 767.875 1341.91 780.651 1341.14 789.302 1341.21 C 810.693 1341.38 832.87 1340.49 854.207 1341.46 C 860.076 1354.24 867.837 1376.26 873.009 1389.69 L 912.571 1493.81 C 935.886 1555.32 963.299 1621.01 984.787 1682.47 C 964.207 1681.65 919.452 1681.53 899.898 1682.74 C 892.032 1665.37 879.733 1628.1 872.767 1608.97 C 867.594 1608.93 862.421 1608.86 857.248 1608.76 L 738.242 1608.6 C 731.496 1623.47 717.742 1665.81 712.629 1682.16 L 628.091 1682.1 L 691.754 1516.54 C 706.361 1477.24 721.221 1438.04 736.332 1398.94 C 739.294 1391.17 755.844 1343.98 759.757 1341.16 z M 759.276 1547.1 L 805.75 1546.98 L 851.997 1546.97 C 847.321 1534.19 806.7 1414.15 805.423 1412.74 C 795.458 1441.18 785.727 1469.7 776.229 1498.3 C 772.277 1510.16 763.986 1536.94 759.276 1547.1 z"/>
<path fill="none" stroke="rgb(255,140,0)" stroke-width="38" stroke-linejoin="round" stroke-linecap="round" opacity="0.7" d="M 1133.62 1335.44 C 1174.83 1332.88 1222.01 1341.61 1259.78 1357.88 C 1257.26 1378.7 1252.2 1403.37 1248.54 1424.37 C 1219.18 1412.08 1186.4 1402.8 1154.49 1401.36 C 1139.4 1401.02 1107.57 1401.75 1096.79 1414.62 C 1075.21 1440.38 1097.45 1457.09 1119.37 1464.83 C 1163.1 1480.27 1217.78 1484.91 1252.36 1516.61 C 1288.03 1549.32 1283.8 1619.56 1249.67 1651.96 C 1216.49 1683.99 1171.33 1688.19 1127.58 1688.48 C 1076.34 1686.62 1050.53 1679.91 1002.94 1661.85 C 1006.67 1642 1009.52 1612.69 1012.32 1591.83 C 1056.49 1609.66 1092.04 1624.92 1141.65 1621.04 C 1164.63 1619.25 1197.12 1615.45 1194.28 1584.43 C 1191.99 1559.35 1159.2 1552.83 1139.49 1547.42 C 1086.17 1532.81 1012.72 1519.54 1007.25 1451.8 C 1000.61 1369.69 1062.12 1340.78 1133.62 1335.44 z"/>
<path fill="rgb(255,220,0)" d="M 293.795 1341.56 C 316.195 1340.76 351.187 1340.49 373.341 1341.52 C 378.24 1346.51 387.312 1360.29 391.537 1366.5 L 419.122 1406.96 L 519.938 1552.96 C 519.196 1512.57 518.896 1472.17 519.036 1431.77 C 518.991 1402.08 518.481 1370.7 519.157 1341.16 C 537.989 1342.31 577.701 1341.74 597.099 1341.12 L 596.943 1591.09 L 597.097 1645.6 C 597.169 1652.41 597.786 1676.14 596.468 1681.66 L 594.25 1682.15 C 569.481 1681.94 544.711 1681.92 519.942 1682.09 C 502.503 1659.66 480.991 1626.28 464.571 1602.29 L 369.855 1463.92 C 371.014 1536.74 371.47 1609.58 371.222 1682.41 C 346.824 1681.45 317.375 1682.04 292.714 1682.11 C 291.564 1577.99 293.077 1473.66 292.581 1369.53 C 292.551 1363.04 292.004 1347.05 293.795 1341.56 z"/>
<path fill="rgb(255,220,0)" d="M 759.757 1341.16 C 767.875 1341.91 780.651 1341.14 789.302 1341.21 C 810.693 1341.38 832.87 1340.49 854.207 1341.46 C 860.076 1354.24 867.837 1376.26 873.009 1389.69 L 912.571 1493.81 C 935.886 1555.32 963.299 1621.01 984.787 1682.47 C 964.207 1681.65 919.452 1681.53 899.898 1682.74 C 892.032 1665.37 879.733 1628.1 872.767 1608.97 C 867.594 1608.93 862.421 1608.86 857.248 1608.76 L 738.242 1608.6 C 731.496 1623.47 717.742 1665.81 712.629 1682.16 L 628.091 1682.1 L 691.754 1516.54 C 706.361 1477.24 721.221 1438.04 736.332 1398.94 C 739.294 1391.17 755.844 1343.98 759.757 1341.16 z M 759.276 1547.1 L 805.75 1546.98 L 851.997 1546.97 C 847.321 1534.19 806.7 1414.15 805.423 1412.74 C 795.458 1441.18 785.727 1469.7 776.229 1498.3 C 772.277 1510.16 763.986 1536.94 759.276 1547.1 z"/>
<path fill="rgb(255,220,0)" d="M 1133.62 1335.44 C 1174.83 1332.88 1222.01 1341.61 1259.78 1357.88 C 1257.26 1378.7 1252.2 1403.37 1248.54 1424.37 C 1219.18 1412.08 1186.4 1402.8 1154.49 1401.36 C 1139.4 1401.02 1107.57 1401.75 1096.79 1414.62 C 1075.21 1440.38 1097.45 1457.09 1119.37 1464.83 C 1163.1 1480.27 1217.78 1484.91 1252.36 1516.61 C 1288.03 1549.32 1283.8 1619.56 1249.67 1651.96 C 1216.49 1683.99 1171.33 1688.19 1127.58 1688.48 C 1076.34 1686.62 1050.53 1679.91 1002.94 1661.85 C 1006.67 1642 1009.52 1612.69 1012.32 1591.83 C 1056.49 1609.66 1092.04 1624.92 1141.65 1621.04 C 1164.63 1619.25 1197.12 1615.45 1194.28 1584.43 C 1191.99 1559.35 1159.2 1552.83 1139.49 1547.42 C 1086.17 1532.81 1012.72 1519.54 1007.25 1451.8 C 1000.61 1369.69 1062.12 1340.78 1133.62 1335.44 z"/>
<path fill="rgb(215,31,29)" d="M 1509.55 1427.41 L 1511.03 1427.44 C 1522.64 1427.58 1531.33 1433.23 1539.09 1432.53 C 1554.59 1431.12 1560.97 1427.7 1577.36 1427.87 L 1633.73 1586.93 L 1685.57 1427.9 C 1705.64 1427.13 1707.03 1431.85 1724.78 1437.15 C 1730.12 1438.74 1743.76 1427.64 1750.84 1427.75 C 1755.69 1427.82 1760.52 1428.24 1765.48 1428.78 C 1761.01 1440.58 1754.57 1456.23 1752.07 1468.4 C 1750.16 1477.68 1750.83 1490.5 1747.77 1500.32 C 1744.31 1510.64 1739.63 1520.17 1736.19 1530.55 C 1733.78 1537.8 1739.02 1560.81 1727.41 1558.42 C 1723.82 1555.45 1723.25 1553.46 1721.08 1549.17 C 1716.21 1560.38 1711.05 1573.3 1707.51 1585.23 C 1704.62 1594.96 1709.7 1656.29 1697.22 1657.43 C 1692.95 1654.74 1690.69 1639.63 1688.76 1633.13 C 1680.79 1645.52 1671.16 1683.67 1664.22 1698.75 C 1658.23 1711.77 1650.23 1724.03 1643.79 1737.35 C 1634.4 1758.81 1631.78 1777.26 1635.75 1800.45 C 1637.43 1810.3 1640.5 1829.82 1630.39 1835.83 C 1600.69 1835.99 1632.77 1771.72 1613.38 1760.96 C 1604.02 1763.27 1583.2 1764.91 1579.59 1775.87 C 1577.91 1780.98 1578.04 1794.02 1569.05 1792.29 C 1562.47 1786.45 1560.9 1773.25 1552.37 1771.89 C 1538.57 1778.34 1551.68 1804.63 1538.56 1814.39 C 1526.9 1813.39 1532.29 1779.21 1528.51 1771.04 C 1527.6 1769.08 1520.75 1762.23 1518.9 1760.35 C 1520.84 1741.25 1523.78 1721.08 1526.24 1701.97 C 1559.05 1709.53 1581.32 1712.56 1595.51 1675.39 C 1587.18 1648.04 1573.37 1620.6 1562.9 1593.84 C 1558.69 1583.06 1553.03 1570.81 1547.62 1560.63 C 1543.72 1577.99 1550.71 1605.35 1543.44 1615.32 C 1539.8 1616.39 1541.58 1616.42 1537.93 1615.16 C 1530.93 1607.23 1534.86 1590.64 1534.37 1580.09 C 1532.81 1546.53 1525.4 1509.39 1515.25 1477.41 C 1510.07 1461.06 1499.82 1445.44 1494.86 1428.31 C 1499.76 1428.05 1504.66 1427.75 1509.55 1427.41 z"/>
<path fill="rgb(215,31,29)" d="M 1416.71 1353.51 C 1418.69 1361.97 1417.04 1416.81 1417.1 1428.54 C 1434.58 1427.85 1461.68 1427.96 1479.1 1428.82 C 1480.06 1441.97 1483.35 1512.5 1470.13 1515.13 C 1463.34 1510.46 1459.32 1490.76 1449.26 1493.5 C 1440.63 1495.86 1445.5 1512.8 1437.64 1515.9 C 1429.35 1511.61 1429.87 1487.67 1418.51 1494.23 C 1415.49 1501.81 1416.08 1592.63 1418.83 1601.72 C 1420.9 1608.56 1424.9 1614.27 1431.37 1617.54 C 1446.3 1625.1 1462.86 1618.82 1477.47 1613.91 C 1478.56 1633.7 1480.83 1655.94 1481 1675.47 C 1478.82 1677.57 1473.22 1682.59 1471.68 1684.81 C 1456.45 1706.41 1466.58 1732.46 1463.71 1756.3 C 1462.98 1762.39 1458.33 1766.62 1452 1765.29 C 1437.93 1753.73 1457.07 1724.09 1444.72 1696.73 L 1444.11 1695.43 C 1442.39 1693.49 1437.12 1691.3 1435.35 1691.69 C 1422.7 1694.46 1430.37 1715.45 1421.26 1724.45 L 1419.54 1724.41 C 1412.6 1718.04 1413.62 1702.25 1407.46 1693.8 C 1392.92 1673.87 1385.03 1703.78 1376.67 1710.33 C 1363.85 1713.06 1361.29 1678.97 1358.63 1670.16 C 1356.64 1660.31 1349.02 1650.65 1346.21 1641.42 C 1334.06 1601.4 1340.71 1555.56 1339.2 1514.04 C 1338.93 1506.61 1340.04 1499.86 1338.2 1492.88 C 1318.09 1496.79 1335.81 1544.76 1319.59 1544.38 C 1306.72 1534 1328.09 1499.43 1300.3 1490.22 C 1299.93 1469.62 1299.89 1449.02 1300.19 1428.42 C 1313.07 1428.63 1326.22 1428.51 1339.12 1428.52 L 1339.24 1368.24 C 1349.32 1366.25 1359.34 1364.75 1369.53 1362.74 C 1384.91 1359.69 1401.28 1355.55 1416.71 1353.51 z"/>
<path fill="rgb(172,30,30)" d="M 1730.15 1578.33 C 1740.15 1581.68 1736.8 1592.63 1731.15 1598.63 C 1723.29 1591.82 1722.89 1585.89 1730.15 1578.33 z"/>
<path fill="rgb(172,30,30)" d="M 1438.1 1535.41 C 1444.33 1540.25 1442.71 1545.63 1439.13 1551.32 C 1432.12 1547.08 1434.59 1540.97 1438.1 1535.41 z"/>
<g transform="translate(0,60)">
<path fill="rgb(200,210,220)" d="M 721.283 1844.22 C 738.975 1841.74 740.63 1850.08 745.915 1849.88 L 745.954 1845.39 C 748.853 1844.51 760.967 1844.96 764.629 1845 C 762.548 1869.01 767.819 1898.51 760.704 1920.96 C 754.061 1941.92 721.915 1941.77 704.653 1934.33 L 704.417 1932.27 L 706.63 1918.2 C 727.433 1925.94 741.07 1927.99 744.298 1902.56 C 741.651 1904.94 738.485 1907.31 735.155 1908.61 C 728.776 1911.16 721.647 1911.07 715.331 1908.37 C 690.147 1897.43 690.993 1854.09 721.283 1844.22 z M 734.027 1895.29 C 748.403 1888.87 748.764 1861.57 730.355 1858.95 C 712.367 1867.25 715.033 1894.23 734.027 1895.29 z"/>
<path fill="rgb(200,210,220)" d="M 1540.94 1815.91 L 1560.91 1815.43 L 1560.89 1875.24 C 1560.89 1885.29 1560.47 1901.02 1561.85 1910.56 C 1556.3 1910.64 1550.01 1911.37 1545.08 1909.29 C 1542.54 1906.5 1543.29 1908.16 1543.22 1903.97 L 1542 1903.26 C 1535.38 1909.71 1530.45 1911.49 1521.55 1912.02 L 1520.25 1912.09 C 1471.97 1904.02 1493.91 1821.33 1540.92 1849.38 C 1541.67 1838.97 1541.13 1826.5 1540.94 1815.91 z M 1533.3 1895.85 C 1545.89 1886.05 1545.66 1856.91 1523.06 1860.06 C 1508.23 1871.76 1512.17 1898.99 1533.3 1895.85 z"/>
<path fill="rgb(200,210,220)" d="M 949.569 1845.18 C 955.79 1844.86 963.657 1845.1 970.015 1845.14 C 968.929 1848.03 968.097 1851.21 967.231 1854.2 C 961.465 1873.01 955.426 1891.73 949.115 1910.36 C 942.98 1909.94 936.699 1910.18 930.54 1910.28 C 927.448 1898.94 921.8 1879.75 920.363 1868.69 C 917.314 1882.68 913.376 1896.52 909.449 1910.28 C 903.539 1909.89 896.305 1910.1 890.283 1910.12 C 882.959 1891.39 876.02 1864.92 870.317 1845.07 C 877.293 1845 884.269 1845.06 891.243 1845.22 C 894.647 1858.37 899.591 1881.23 900.467 1894.36 C 902.823 1880.35 908.38 1858.67 912.431 1844.98 C 917.654 1845.18 922.879 1845.3 928.105 1845.34 C 932.526 1860.4 936.11 1875 939.857 1890.25 C 942.053 1875.95 946.154 1859.24 949.569 1845.18 z"/>
<path fill="rgb(200,210,220)" d="M 527.351 1843.81 C 546.202 1839.48 564.979 1851.31 569.205 1870.18 C 573.432 1889.06 561.495 1907.77 542.596 1911.89 C 523.848 1915.97 505.319 1904.15 501.125 1885.43 C 496.932 1866.7 508.65 1848.11 527.351 1843.81 z M 539.44 1897.51 C 553.994 1889.02 554.503 1857.95 530.964 1859 C 516.49 1870.95 518.944 1899.79 539.44 1897.51 z"/>
<path fill="rgb(200,210,220)" d="M 1073.54 1815.48 L 1083.23 1815.67 L 1083.24 1852.11 C 1089.01 1847.26 1096.39 1842.74 1104 1842.95 C 1131.77 1843.72 1125.4 1892.98 1125.14 1910.04 L 1105.05 1910.37 L 1104.77 1877.76 C 1104.64 1875.56 1104.34 1867.96 1103.07 1865.99 C 1097.13 1856.67 1086.83 1857.55 1084.38 1869.43 C 1081.64 1882.73 1084.03 1896.11 1083.29 1909.63 L 1083.22 1910.78 C 1075.97 1910.27 1070.52 1910.36 1063.24 1910.52 C 1064.04 1888.63 1062.41 1865.13 1063.58 1842.81 C 1064.01 1834.67 1062.82 1825.62 1063.43 1816.66 C 1066.32 1815.11 1070.12 1815.49 1073.54 1815.48 z"/>
<path fill="rgb(200,210,220)" d="M 410.338 1819.2 C 422.465 1817.96 429.126 1819.66 440.287 1823.59 C 438.744 1829.07 437.657 1834.77 436.482 1840.35 C 428.369 1837.14 401.758 1829.48 403.619 1846.55 C 409.379 1855.5 424.615 1857.54 433.571 1864.05 C 447.372 1874.08 449.191 1885.89 439.179 1899.72 C 432.829 1908.5 424.257 1910.33 414.241 1911.66 C 403.755 1912.51 391.848 1911.04 382.451 1906.19 L 385.678 1890.22 C 395.182 1893.34 414.954 1900.04 422.431 1889.61 C 426.061 1884.55 419.18 1878.47 414.915 1876.69 C 396.369 1868.96 372.452 1856.67 386.665 1832.92 C 392.086 1823.91 400.272 1821.35 410.338 1819.2 z"/>
<path fill="rgb(200,210,220)" d="M 648.486 1844.31 C 695.871 1839.5 686.808 1876.85 687.14 1910.39 C 681.426 1910.47 674.91 1910.86 669.359 1909.93 C 668.924 1907.37 669.189 1908.12 668.108 1905.75 C 656.28 1907.06 660.173 1915.92 638.051 1910.2 C 625.071 1902.17 621.605 1890.01 632.213 1877.49 C 642.582 1865.25 659.785 1869.29 665.549 1866.09 C 663.84 1851.38 643.981 1859.74 635.089 1862.34 C 633.273 1860.31 632.21 1851.92 631.481 1848.5 C 638.613 1846.15 641.062 1845.41 648.486 1844.31 z M 655.943 1898.68 C 663.16 1895.81 672.266 1885.44 663.716 1880.09 L 658.053 1880.23 C 646.147 1883.23 641.865 1894.5 655.943 1898.68 z"/>
<path fill="rgb(200,210,220)" d="M 1184.21 1844.32 C 1238 1841.7 1217.98 1875.58 1223.9 1910.25 C 1218.07 1910.56 1211.93 1911.22 1206.23 1910.28 C 1204.59 1908.5 1204.81 1908.7 1204.13 1906.44 C 1192.43 1910.69 1187.7 1913.71 1175.63 1910.6 C 1165.85 1904.94 1161.04 1896.03 1164.46 1884.52 C 1169.67 1866.99 1190.01 1871.18 1201.06 1865.4 L 1201.59 1863.51 C 1194.31 1852.34 1181.17 1858.26 1172.05 1863 C 1170.7 1858.29 1169.39 1853.58 1168.11 1848.86 C 1174.99 1846.14 1176.91 1845.53 1184.21 1844.32 z M 1192.55 1898.37 C 1199.27 1895.85 1203.23 1892.44 1203.64 1884.75 C 1202.02 1880.83 1203.29 1882.21 1200.17 1880.07 L 1193.81 1880.26 C 1187.74 1882.53 1183.27 1884.85 1184.14 1892.35 C 1186.39 1896.59 1187.89 1897.3 1192.55 1898.37 z"/>
<path fill="rgb(200,210,220)" d="M 801.323 1844.26 C 818.626 1843.41 830.656 1845.9 837.201 1864.85 C 839.162 1870.53 840.09 1876.69 837.534 1882.32 C 832.56 1885.84 805.498 1883.96 795.814 1884.68 L 794.142 1884.81 C 798.842 1891.79 800.144 1892.77 807.545 1896.9 C 817.727 1897.31 821.549 1896.39 831.49 1894.48 L 834.688 1908.16 C 761.586 1928.43 761.522 1854.19 801.323 1844.26 z M 807.578 1870.24 C 812.443 1870.2 813.892 1870.96 817.723 1868.74 C 820.708 1861.71 811.635 1857.93 806.015 1857.01 C 801.061 1859.13 794.448 1862.56 796.437 1868.63 C 799.585 1871.03 803.451 1870.34 807.578 1870.24 z"/>
<path fill="rgb(200,210,220)" d="M 1605.08 1843.36 C 1632.14 1844.57 1635.48 1861.56 1634.9 1884.15 C 1629.75 1884.03 1597.07 1883.55 1593.92 1884.37 L 1593.13 1885.79 C 1597.9 1903.75 1618.59 1892.99 1628.59 1895.93 L 1629.55 1899.27 C 1630.99 1903.36 1632.01 1904.63 1630.59 1907.94 C 1610.02 1917.45 1577.25 1912.29 1573.43 1885.61 C 1570.05 1861.98 1581.6 1846.4 1605.08 1843.36 z M 1608.6 1871.06 C 1613.45 1870.81 1613.67 1871.68 1616.34 1869.17 C 1617.43 1862.49 1610.89 1857.64 1604.76 1856.99 C 1603.9 1856.9 1603.03 1856.83 1602.16 1856.78 C 1598.23 1859.46 1594.12 1861.75 1593.2 1866.6 C 1595.92 1871.49 1598.77 1870.69 1604.04 1870.88 L 1608.6 1871.06 z"/>
<path fill="rgb(200,210,220)" d="M 1419.23 1845.05 L 1439.89 1845.03 C 1439.85 1854.63 1434.51 1909.93 1457.68 1892.9 C 1463.79 1888.41 1461.38 1854.26 1461.43 1845.58 C 1469.52 1845.3 1475.39 1843.54 1480.61 1848.39 C 1482.47 1852.95 1481.76 1860.5 1481.68 1865.75 C 1481.71 1880.57 1481.9 1895.38 1482.25 1910.19 C 1477.42 1910.38 1469.07 1911.23 1465.19 1909.08 C 1464.65 1906.62 1464.24 1905.05 1463.49 1902.65 C 1456.71 1907.58 1453.39 1911.16 1444.48 1911.8 C 1412.54 1914.09 1419.43 1868.35 1419.23 1845.05 z"/>
<path fill="rgb(200,210,220)" d="M 1392.47 1826.18 L 1393.55 1826.31 C 1394.83 1829.61 1394.27 1840.82 1394.21 1845.07 C 1400.56 1845.53 1402.59 1845.52 1408.96 1845.07 L 1408.96 1860.14 L 1394.38 1860.12 C 1394.98 1869 1392.31 1887.41 1396.77 1893.79 C 1399.67 1895.84 1401.47 1895.56 1405.07 1895.78 L 1406.49 1895.86 C 1411.73 1900.04 1411.02 1903.68 1407.85 1908.7 C 1406.02 1911.59 1402.3 1911.35 1399.23 1911.87 C 1394.17 1912.21 1389.83 1911.03 1384.84 1910.06 C 1364.25 1892.33 1380.76 1870.36 1371.96 1860.1 C 1364.17 1858.89 1362.36 1852.87 1365.84 1846.36 C 1369.31 1845.9 1369.6 1846.12 1372.51 1844.04 C 1374.92 1840.27 1374.22 1836.56 1374.14 1831.88 C 1381.42 1829.11 1384.91 1827.78 1392.47 1826.18 z"/>
<path fill="rgb(200,210,220)" d="M 1257.37 1827.17 C 1258.28 1827.08 1259.12 1827.39 1260.1 1827.61 C 1261.78 1831.32 1260.43 1840.61 1260.07 1845.3 C 1265.25 1845.39 1269.18 1845.44 1274.42 1845.05 L 1274.64 1860.18 L 1260.75 1860.09 C 1260.73 1868.71 1257.37 1888.11 1264.74 1894.43 C 1266.92 1896.3 1271.61 1895.54 1274.52 1895.28 C 1274.61 1900.25 1275.58 1903.52 1274.37 1908.37 C 1271.67 1911.59 1272.67 1910.57 1267.88 1911.88 C 1255.05 1912.65 1250.2 1910.98 1242.01 1901.18 C 1238.78 1887.08 1242.07 1872.54 1239.24 1861.41 C 1236.99 1860.57 1235.6 1859.89 1233.44 1858.82 C 1230.54 1854.94 1229.82 1848.44 1232.93 1844.57 C 1234.68 1844.86 1235.94 1845.13 1237.67 1845.52 L 1239.26 1844.27 C 1241.26 1840.06 1240.57 1835.55 1240.42 1830.73 C 1245.94 1829.37 1251.78 1828.3 1257.37 1827.17 z"/>
<path fill="rgb(200,210,220)" d="M 1035.49 1826.14 L 1036.06 1826.19 C 1038.39 1828.5 1037.78 1840.8 1037.82 1844.99 L 1051.64 1845.56 C 1051.38 1849.83 1051.74 1855.87 1051.87 1860.28 C 1046.34 1860.43 1042.74 1860.31 1037.29 1859.98 C 1037.15 1868.53 1034.56 1891.55 1042.06 1895.48 C 1048.01 1895.11 1049.43 1894.01 1052.75 1899.21 C 1054.45 1907.7 1050.36 1910.52 1043.25 1911.82 C 1010.71 1912.5 1017.49 1884.23 1017.77 1860.4 C 1005.82 1861.06 1006.31 1856.83 1008.16 1846.46 C 1010.55 1844.5 1012.19 1845.16 1016.06 1844.94 C 1017.71 1841.56 1017.15 1834.65 1017.17 1830.39 C 1023.29 1829.17 1029.42 1827.61 1035.49 1826.14 z"/>
<path fill="rgb(200,210,220)" d="M 1307.09 1826.21 L 1308.29 1827.07 C 1311.99 1839.85 1301.25 1846.9 1323.22 1845.04 C 1323.3 1850.05 1323.41 1855.05 1323.56 1860.05 L 1308.79 1859.92 C 1308.9 1868.17 1306.45 1890.74 1313.83 1895.09 C 1317.47 1895.45 1320.02 1895.18 1322.57 1897.6 C 1324.65 1901.18 1324.03 1905.84 1323.99 1910.14 C 1320.05 1910.88 1315.58 1911.41 1311.57 1911.99 C 1276.6 1906.36 1294.76 1881.35 1288.19 1860.63 C 1277.38 1860.66 1279.34 1854.98 1280.02 1845.85 C 1281.67 1844.22 1285.25 1844.87 1288.41 1844.81 C 1289.52 1841.82 1289.03 1834.34 1289 1830.68 C 1294.96 1829.32 1301.14 1827.69 1307.09 1826.21 z"/>
<path fill="rgb(200,210,220)" d="M 477.241 1826.37 L 477.865 1826.69 C 479.146 1829.91 478.347 1840.79 478.226 1845 L 493.044 1845.37 C 492.999 1849.92 492.675 1854.84 492.464 1859.42 C 487.8 1859.89 483.65 1859.88 478.983 1859.94 C 478.76 1868.34 476.297 1889.84 483.192 1894.88 C 487.63 1894.52 488.733 1893.95 491.88 1896.2 C 493.671 1899.16 493.631 1906.69 493.875 1910.56 L 482.315 1911.72 C 449.273 1912.89 462.461 1881.24 457.97 1861.26 C 457.643 1859.81 447.112 1860.22 449.003 1850.82 C 451.073 1840.52 451.606 1848.18 457.699 1843.55 C 459.684 1839.71 459.041 1835.21 458.972 1830.69 C 464.953 1829.15 471.209 1827.78 477.241 1826.37 z"/>
<path fill="rgb(200,210,220)" d="M 611.973 1844.17 C 615.705 1843.83 618.128 1843.28 621.711 1844.38 C 622.237 1846.37 622.863 1861.87 621.28 1862.17 C 617.829 1862.83 607.228 1864.12 605.06 1867.4 C 599.432 1875.9 601.779 1900.52 602.008 1910.25 C 595.652 1909.95 588.618 1910.1 582.203 1910.11 C 580.762 1897.82 581.01 1858.41 580.97 1845.13 C 586.811 1845.25 592.688 1845.01 598.53 1844.84 C 598.454 1848.64 598.81 1852.99 599.026 1856.83 C 603.461 1849.83 604.552 1847.52 611.973 1844.17 z"/>
<path fill="rgb(200,210,220)" d="M 977.669 1844.94 L 998.541 1845.48 C 998.958 1867.26 999.094 1889.05 998.949 1910.83 C 990.592 1910.29 986.538 1910.02 978.302 1910.82 L 977.669 1844.94 z"/>
<path fill="rgb(200,210,220)" d="M 1334.91 1845.23 C 1342.56 1845.55 1347.57 1845.62 1355.18 1845.16 C 1355.36 1853.9 1356.95 1905.9 1353.91 1910.06 L 1335.42 1910.1 C 1335.77 1899.41 1335.29 1887.4 1335.29 1876.59 C 1335.3 1868.2 1336.11 1852.97 1334.91 1845.23 z"/>
<path fill="rgb(200,210,220)" d="M 1651.72 1888.6 C 1655.79 1887.02 1660.4 1887.79 1663.74 1890.62 C 1667.07 1893.44 1668.6 1897.86 1667.71 1902.13 C 1666.83 1906.41 1663.68 1909.86 1659.5 1911.13 C 1653.36 1912.99 1646.86 1909.67 1644.76 1903.61 C 1642.67 1897.55 1645.74 1890.92 1651.72 1888.6 z"/>
<path fill="rgb(200,210,220)" d="M 984.777 1816.13 C 988.519 1814.81 992.68 1815.63 995.654 1818.25 C 998.628 1820.87 999.951 1824.9 999.111 1828.78 C 998.271 1832.66 995.401 1835.78 991.607 1836.94 C 985.907 1838.68 979.861 1835.54 978.002 1829.88 C 976.143 1824.21 979.154 1818.1 984.777 1816.13 z"/>
<path fill="rgb(200,210,220)" d="M 1340.83 1816.11 C 1358.29 1814.91 1361.2 1832.33 1350.01 1835.86 C 1333.81 1838.31 1327.85 1825.96 1340.83 1816.11 z"/>
<path fill="rgb(200,210,220)" fill-opacity="0.235294" d="M 1280.46 1840.6 C 1283.67 1840.27 1282.29 1839.88 1284.8 1841.43 L 1281.48 1842.16 L 1280.46 1840.6 z"/>
</g>
</g>
</svg>